<?xml version="1.0"?>

<svg xmlns="http://www.w3.org/2000/svg" xmlns:xlink="http://www.w3.org/1999/xlink" version="1.1" width="2120px" height="2120px" viewBox="0 0 2120 2120">
<defs>
<linearGradient id="_grad_" gradientUnits="userSpaceOnUse" x1="0" y1="0" x2="2120" y2="2120">
<stop offset="0%" stop-color="#0d277e"/>
<stop stop-color="#1847e4" offset="100%"/>
</linearGradient>
</defs>
<rect x="70" y="70" width="60" height="60" fill="url(#_grad_)"/>
<rect x="130" y="70" width="60" height="60" fill="url(#_grad_)"/>
<rect x="190" y="70" width="60" height="60" fill="url(#_grad_)"/>
<rect x="250" y="70" width="60" height="60" fill="url(#_grad_)"/>
<rect x="310" y="70" width="60" height="60" fill="url(#_grad_)"/>
<rect x="370" y="70" width="60" height="60" fill="url(#_grad_)"/>
<rect x="430" y="70" width="60" height="60" fill="url(#_grad_)"/>
<rect x="550" y="70" width="60" height="60" fill="url(#_grad_)"/>
<rect x="730" y="70" width="60" height="60" fill="url(#_grad_)"/>
<rect x="790" y="70" width="60" height="60" fill="url(#_grad_)"/>
<rect x="1030" y="70" width="60" height="60" fill="url(#_grad_)"/>
<rect x="1150" y="70" width="60" height="60" fill="url(#_grad_)"/>
<rect x="1210" y="70" width="60" height="60" fill="url(#_grad_)"/>
<rect x="1270" y="70" width="60" height="60" fill="url(#_grad_)"/>
<rect x="1330" y="70" width="60" height="60" fill="url(#_grad_)"/>
<rect x="1390" y="70" width="60" height="60" fill="url(#_grad_)"/>
<rect x="1450" y="70" width="60" height="60" fill="url(#_grad_)"/>
<rect x="1510" y="70" width="60" height="60" fill="url(#_grad_)"/>
<rect x="1630" y="70" width="60" height="60" fill="url(#_grad_)"/>
<rect x="1690" y="70" width="60" height="60" fill="url(#_grad_)"/>
<rect x="1750" y="70" width="60" height="60" fill="url(#_grad_)"/>
<rect x="1810" y="70" width="60" height="60" fill="url(#_grad_)"/>
<rect x="1870" y="70" width="60" height="60" fill="url(#_grad_)"/>
<rect x="1930" y="70" width="60" height="60" fill="url(#_grad_)"/>
<rect x="1990" y="70" width="60" height="60" fill="url(#_grad_)"/>
<rect x="70" y="130" width="60" height="60" fill="url(#_grad_)"/>
<rect x="430" y="130" width="60" height="60" fill="url(#_grad_)"/>
<rect x="550" y="130" width="60" height="60" fill="url(#_grad_)"/>
<rect x="670" y="130" width="60" height="60" fill="url(#_grad_)"/>
<rect x="730" y="130" width="60" height="60" fill="url(#_grad_)"/>
<rect x="910" y="130" width="60" height="60" fill="url(#_grad_)"/>
<rect x="1030" y="130" width="60" height="60" fill="url(#_grad_)"/>
<rect x="1210" y="130" width="60" height="60" fill="url(#_grad_)"/>
<rect x="1270" y="130" width="60" height="60" fill="url(#_grad_)"/>
<rect x="1390" y="130" width="60" height="60" fill="url(#_grad_)"/>
<rect x="1630" y="130" width="60" height="60" fill="url(#_grad_)"/>
<rect x="1990" y="130" width="60" height="60" fill="url(#_grad_)"/>
<rect x="70" y="190" width="60" height="60" fill="url(#_grad_)"/>
<rect x="190" y="190" width="60" height="60" fill="url(#_grad_)"/>
<rect x="250" y="190" width="60" height="60" fill="url(#_grad_)"/>
<rect x="310" y="190" width="60" height="60" fill="url(#_grad_)"/>
<rect x="430" y="190" width="60" height="60" fill="url(#_grad_)"/>
<rect x="550" y="190" width="60" height="60" fill="url(#_grad_)"/>
<rect x="610" y="190" width="60" height="60" fill="url(#_grad_)"/>
<rect x="670" y="190" width="60" height="60" fill="url(#_grad_)"/>
<rect x="730" y="190" width="60" height="60" fill="url(#_grad_)"/>
<rect x="790" y="190" width="60" height="60" fill="url(#_grad_)"/>
<rect x="850" y="190" width="60" height="60" fill="url(#_grad_)"/>
<rect x="910" y="190" width="60" height="60" fill="url(#_grad_)"/>
<rect x="970" y="190" width="60" height="60" fill="url(#_grad_)"/>
<rect x="1090" y="190" width="60" height="60" fill="url(#_grad_)"/>
<rect x="1270" y="190" width="60" height="60" fill="url(#_grad_)"/>
<rect x="1330" y="190" width="60" height="60" fill="url(#_grad_)"/>
<rect x="1390" y="190" width="60" height="60" fill="url(#_grad_)"/>
<rect x="1450" y="190" width="60" height="60" fill="url(#_grad_)"/>
<rect x="1630" y="190" width="60" height="60" fill="url(#_grad_)"/>
<rect x="1750" y="190" width="60" height="60" fill="url(#_grad_)"/>
<rect x="1810" y="190" width="60" height="60" fill="url(#_grad_)"/>
<rect x="1870" y="190" width="60" height="60" fill="url(#_grad_)"/>
<rect x="1990" y="190" width="60" height="60" fill="url(#_grad_)"/>
<rect x="70" y="250" width="60" height="60" fill="url(#_grad_)"/>
<rect x="190" y="250" width="60" height="60" fill="url(#_grad_)"/>
<rect x="250" y="250" width="60" height="60" fill="url(#_grad_)"/>
<rect x="310" y="250" width="60" height="60" fill="url(#_grad_)"/>
<rect x="430" y="250" width="60" height="60" fill="url(#_grad_)"/>
<rect x="610" y="250" width="60" height="60" fill="url(#_grad_)"/>
<rect x="670" y="250" width="60" height="60" fill="url(#_grad_)"/>
<rect x="790" y="250" width="60" height="60" fill="url(#_grad_)"/>
<rect x="970" y="250" width="60" height="60" fill="url(#_grad_)"/>
<rect x="1030" y="250" width="60" height="60" fill="url(#_grad_)"/>
<rect x="1090" y="250" width="60" height="60" fill="url(#_grad_)"/>
<rect x="1150" y="250" width="60" height="60" fill="url(#_grad_)"/>
<rect x="1210" y="250" width="60" height="60" fill="url(#_grad_)"/>
<rect x="1510" y="250" width="60" height="60" fill="url(#_grad_)"/>
<rect x="1630" y="250" width="60" height="60" fill="url(#_grad_)"/>
<rect x="1750" y="250" width="60" height="60" fill="url(#_grad_)"/>
<rect x="1810" y="250" width="60" height="60" fill="url(#_grad_)"/>
<rect x="1870" y="250" width="60" height="60" fill="url(#_grad_)"/>
<rect x="1990" y="250" width="60" height="60" fill="url(#_grad_)"/>
<rect x="70" y="310" width="60" height="60" fill="url(#_grad_)"/>
<rect x="190" y="310" width="60" height="60" fill="url(#_grad_)"/>
<rect x="250" y="310" width="60" height="60" fill="url(#_grad_)"/>
<rect x="310" y="310" width="60" height="60" fill="url(#_grad_)"/>
<rect x="430" y="310" width="60" height="60" fill="url(#_grad_)"/>
<rect x="730" y="310" width="60" height="60" fill="url(#_grad_)"/>
<rect x="850" y="310" width="60" height="60" fill="url(#_grad_)"/>
<rect x="970" y="310" width="60" height="60" fill="url(#_grad_)"/>
<rect x="1090" y="310" width="60" height="60" fill="url(#_grad_)"/>
<rect x="1270" y="310" width="60" height="60" fill="url(#_grad_)"/>
<rect x="1330" y="310" width="60" height="60" fill="url(#_grad_)"/>
<rect x="1390" y="310" width="60" height="60" fill="url(#_grad_)"/>
<rect x="1630" y="310" width="60" height="60" fill="url(#_grad_)"/>
<rect x="1750" y="310" width="60" height="60" fill="url(#_grad_)"/>
<rect x="1810" y="310" width="60" height="60" fill="url(#_grad_)"/>
<rect x="1870" y="310" width="60" height="60" fill="url(#_grad_)"/>
<rect x="1990" y="310" width="60" height="60" fill="url(#_grad_)"/>
<rect x="70" y="370" width="60" height="60" fill="url(#_grad_)"/>
<rect x="430" y="370" width="60" height="60" fill="url(#_grad_)"/>
<rect x="550" y="370" width="60" height="60" fill="url(#_grad_)"/>
<rect x="670" y="370" width="60" height="60" fill="url(#_grad_)"/>
<rect x="790" y="370" width="60" height="60" fill="url(#_grad_)"/>
<rect x="850" y="370" width="60" height="60" fill="url(#_grad_)"/>
<rect x="910" y="370" width="60" height="60" fill="url(#_grad_)"/>
<rect x="1390" y="370" width="60" height="60" fill="url(#_grad_)"/>
<rect x="1450" y="370" width="60" height="60" fill="url(#_grad_)"/>
<rect x="1510" y="370" width="60" height="60" fill="url(#_grad_)"/>
<rect x="1630" y="370" width="60" height="60" fill="url(#_grad_)"/>
<rect x="1990" y="370" width="60" height="60" fill="url(#_grad_)"/>
<rect x="70" y="430" width="60" height="60" fill="url(#_grad_)"/>
<rect x="130" y="430" width="60" height="60" fill="url(#_grad_)"/>
<rect x="190" y="430" width="60" height="60" fill="url(#_grad_)"/>
<rect x="250" y="430" width="60" height="60" fill="url(#_grad_)"/>
<rect x="310" y="430" width="60" height="60" fill="url(#_grad_)"/>
<rect x="370" y="430" width="60" height="60" fill="url(#_grad_)"/>
<rect x="430" y="430" width="60" height="60" fill="url(#_grad_)"/>
<rect x="550" y="430" width="60" height="60" fill="url(#_grad_)"/>
<rect x="670" y="430" width="60" height="60" fill="url(#_grad_)"/>
<rect x="790" y="430" width="60" height="60" fill="url(#_grad_)"/>
<rect x="910" y="430" width="60" height="60" fill="url(#_grad_)"/>
<rect x="1030" y="430" width="60" height="60" fill="url(#_grad_)"/>
<rect x="1150" y="430" width="60" height="60" fill="url(#_grad_)"/>
<rect x="1270" y="430" width="60" height="60" fill="url(#_grad_)"/>
<rect x="1390" y="430" width="60" height="60" fill="url(#_grad_)"/>
<rect x="1510" y="430" width="60" height="60" fill="url(#_grad_)"/>
<rect x="1630" y="430" width="60" height="60" fill="url(#_grad_)"/>
<rect x="1690" y="430" width="60" height="60" fill="url(#_grad_)"/>
<rect x="1750" y="430" width="60" height="60" fill="url(#_grad_)"/>
<rect x="1810" y="430" width="60" height="60" fill="url(#_grad_)"/>
<rect x="1870" y="430" width="60" height="60" fill="url(#_grad_)"/>
<rect x="1930" y="430" width="60" height="60" fill="url(#_grad_)"/>
<rect x="1990" y="430" width="60" height="60" fill="url(#_grad_)"/>
<rect x="550" y="490" width="60" height="60" fill="url(#_grad_)"/>
<rect x="850" y="490" width="60" height="60" fill="url(#_grad_)"/>
<rect x="910" y="490" width="60" height="60" fill="url(#_grad_)"/>
<rect x="970" y="490" width="60" height="60" fill="url(#_grad_)"/>
<rect x="1210" y="490" width="60" height="60" fill="url(#_grad_)"/>
<rect x="1270" y="490" width="60" height="60" fill="url(#_grad_)"/>
<rect x="1330" y="490" width="60" height="60" fill="url(#_grad_)"/>
<rect x="1450" y="490" width="60" height="60" fill="url(#_grad_)"/>
<rect x="190" y="550" width="60" height="60" fill="url(#_grad_)"/>
<rect x="250" y="550" width="60" height="60" fill="url(#_grad_)"/>
<rect x="310" y="550" width="60" height="60" fill="url(#_grad_)"/>
<rect x="430" y="550" width="60" height="60" fill="url(#_grad_)"/>
<rect x="550" y="550" width="60" height="60" fill="url(#_grad_)"/>
<rect x="610" y="550" width="60" height="60" fill="url(#_grad_)"/>
<rect x="670" y="550" width="60" height="60" fill="url(#_grad_)"/>
<rect x="850" y="550" width="60" height="60" fill="url(#_grad_)"/>
<rect x="970" y="550" width="60" height="60" fill="url(#_grad_)"/>
<rect x="1090" y="550" width="60" height="60" fill="url(#_grad_)"/>
<rect x="1150" y="550" width="60" height="60" fill="url(#_grad_)"/>
<rect x="1270" y="550" width="60" height="60" fill="url(#_grad_)"/>
<rect x="1330" y="550" width="60" height="60" fill="url(#_grad_)"/>
<rect x="1390" y="550" width="60" height="60" fill="url(#_grad_)"/>
<rect x="1450" y="550" width="60" height="60" fill="url(#_grad_)"/>
<rect x="1570" y="550" width="60" height="60" fill="url(#_grad_)"/>
<rect x="1630" y="550" width="60" height="60" fill="url(#_grad_)"/>
<rect x="1690" y="550" width="60" height="60" fill="url(#_grad_)"/>
<rect x="1870" y="550" width="60" height="60" fill="url(#_grad_)"/>
<rect x="1930" y="550" width="60" height="60" fill="url(#_grad_)"/>
<rect x="1990" y="550" width="60" height="60" fill="url(#_grad_)"/>
<rect x="70" y="610" width="60" height="60" fill="url(#_grad_)"/>
<rect x="310" y="610" width="60" height="60" fill="url(#_grad_)"/>
<rect x="490" y="610" width="60" height="60" fill="url(#_grad_)"/>
<rect x="610" y="610" width="60" height="60" fill="url(#_grad_)"/>
<rect x="670" y="610" width="60" height="60" fill="url(#_grad_)"/>
<rect x="910" y="610" width="60" height="60" fill="url(#_grad_)"/>
<rect x="970" y="610" width="60" height="60" fill="url(#_grad_)"/>
<rect x="1090" y="610" width="60" height="60" fill="url(#_grad_)"/>
<rect x="1150" y="610" width="60" height="60" fill="url(#_grad_)"/>
<rect x="1330" y="610" width="60" height="60" fill="url(#_grad_)"/>
<rect x="1390" y="610" width="60" height="60" fill="url(#_grad_)"/>
<rect x="1450" y="610" width="60" height="60" fill="url(#_grad_)"/>
<rect x="1510" y="610" width="60" height="60" fill="url(#_grad_)"/>
<rect x="1810" y="610" width="60" height="60" fill="url(#_grad_)"/>
<rect x="1870" y="610" width="60" height="60" fill="url(#_grad_)"/>
<rect x="1930" y="610" width="60" height="60" fill="url(#_grad_)"/>
<rect x="1990" y="610" width="60" height="60" fill="url(#_grad_)"/>
<rect x="70" y="670" width="60" height="60" fill="url(#_grad_)"/>
<rect x="190" y="670" width="60" height="60" fill="url(#_grad_)"/>
<rect x="370" y="670" width="60" height="60" fill="url(#_grad_)"/>
<rect x="430" y="670" width="60" height="60" fill="url(#_grad_)"/>
<rect x="610" y="670" width="60" height="60" fill="url(#_grad_)"/>
<rect x="850" y="670" width="60" height="60" fill="url(#_grad_)"/>
<rect x="910" y="670" width="60" height="60" fill="url(#_grad_)"/>
<rect x="970" y="670" width="60" height="60" fill="url(#_grad_)"/>
<rect x="1090" y="670" width="60" height="60" fill="url(#_grad_)"/>
<rect x="1150" y="670" width="60" height="60" fill="url(#_grad_)"/>
<rect x="1210" y="670" width="60" height="60" fill="url(#_grad_)"/>
<rect x="1270" y="670" width="60" height="60" fill="url(#_grad_)"/>
<rect x="1330" y="670" width="60" height="60" fill="url(#_grad_)"/>
<rect x="1510" y="670" width="60" height="60" fill="url(#_grad_)"/>
<rect x="1570" y="670" width="60" height="60" fill="url(#_grad_)"/>
<rect x="1750" y="670" width="60" height="60" fill="url(#_grad_)"/>
<rect x="1930" y="670" width="60" height="60" fill="url(#_grad_)"/>
<rect x="1990" y="670" width="60" height="60" fill="url(#_grad_)"/>
<rect x="130" y="730" width="60" height="60" fill="url(#_grad_)"/>
<rect x="190" y="730" width="60" height="60" fill="url(#_grad_)"/>
<rect x="310" y="730" width="60" height="60" fill="url(#_grad_)"/>
<rect x="370" y="730" width="60" height="60" fill="url(#_grad_)"/>
<rect x="610" y="730" width="60" height="60" fill="url(#_grad_)"/>
<rect x="730" y="730" width="60" height="60" fill="url(#_grad_)"/>
<rect x="970" y="730" width="60" height="60" fill="url(#_grad_)"/>
<rect x="1030" y="730" width="60" height="60" fill="url(#_grad_)"/>
<rect x="1270" y="730" width="60" height="60" fill="url(#_grad_)"/>
<rect x="1330" y="730" width="60" height="60" fill="url(#_grad_)"/>
<rect x="1390" y="730" width="60" height="60" fill="url(#_grad_)"/>
<rect x="1450" y="730" width="60" height="60" fill="url(#_grad_)"/>
<rect x="1570" y="730" width="60" height="60" fill="url(#_grad_)"/>
<rect x="1630" y="730" width="60" height="60" fill="url(#_grad_)"/>
<rect x="1810" y="730" width="60" height="60" fill="url(#_grad_)"/>
<rect x="1990" y="730" width="60" height="60" fill="url(#_grad_)"/>
<rect x="70" y="790" width="60" height="60" fill="url(#_grad_)"/>
<rect x="130" y="790" width="60" height="60" fill="url(#_grad_)"/>
<rect x="370" y="790" width="60" height="60" fill="url(#_grad_)"/>
<rect x="430" y="790" width="60" height="60" fill="url(#_grad_)"/>
<rect x="490" y="790" width="60" height="60" fill="url(#_grad_)"/>
<rect x="550" y="790" width="60" height="60" fill="url(#_grad_)"/>
<rect x="610" y="790" width="60" height="60" fill="url(#_grad_)"/>
<rect x="670" y="790" width="60" height="60" fill="url(#_grad_)"/>
<rect x="730" y="790" width="60" height="60" fill="url(#_grad_)"/>
<rect x="910" y="790" width="60" height="60" fill="url(#_grad_)"/>
<rect x="1030" y="790" width="60" height="60" fill="url(#_grad_)"/>
<rect x="1150" y="790" width="60" height="60" fill="url(#_grad_)"/>
<rect x="1210" y="790" width="60" height="60" fill="url(#_grad_)"/>
<rect x="1270" y="790" width="60" height="60" fill="url(#_grad_)"/>
<rect x="1330" y="790" width="60" height="60" fill="url(#_grad_)"/>
<rect x="1570" y="790" width="60" height="60" fill="url(#_grad_)"/>
<rect x="1690" y="790" width="60" height="60" fill="url(#_grad_)"/>
<rect x="1870" y="790" width="60" height="60" fill="url(#_grad_)"/>
<rect x="130" y="850" width="60" height="60" fill="url(#_grad_)"/>
<rect x="250" y="850" width="60" height="60" fill="url(#_grad_)"/>
<rect x="310" y="850" width="60" height="60" fill="url(#_grad_)"/>
<rect x="490" y="850" width="60" height="60" fill="url(#_grad_)"/>
<rect x="610" y="850" width="60" height="60" fill="url(#_grad_)"/>
<rect x="790" y="850" width="60" height="60" fill="url(#_grad_)"/>
<rect x="850" y="850" width="60" height="60" fill="url(#_grad_)"/>
<rect x="910" y="850" width="60" height="60" fill="url(#_grad_)"/>
<rect x="1150" y="850" width="60" height="60" fill="url(#_grad_)"/>
<rect x="1210" y="850" width="60" height="60" fill="url(#_grad_)"/>
<rect x="1270" y="850" width="60" height="60" fill="url(#_grad_)"/>
<rect x="1330" y="850" width="60" height="60" fill="url(#_grad_)"/>
<rect x="1390" y="850" width="60" height="60" fill="url(#_grad_)"/>
<rect x="1570" y="850" width="60" height="60" fill="url(#_grad_)"/>
<rect x="1690" y="850" width="60" height="60" fill="url(#_grad_)"/>
<rect x="1810" y="850" width="60" height="60" fill="url(#_grad_)"/>
<rect x="1870" y="850" width="60" height="60" fill="url(#_grad_)"/>
<rect x="130" y="910" width="60" height="60" fill="url(#_grad_)"/>
<rect x="190" y="910" width="60" height="60" fill="url(#_grad_)"/>
<rect x="430" y="910" width="60" height="60" fill="url(#_grad_)"/>
<rect x="490" y="910" width="60" height="60" fill="url(#_grad_)"/>
<rect x="550" y="910" width="60" height="60" fill="url(#_grad_)"/>
<rect x="610" y="910" width="60" height="60" fill="url(#_grad_)"/>
<rect x="790" y="910" width="60" height="60" fill="url(#_grad_)"/>
<rect x="850" y="910" width="60" height="60" fill="url(#_grad_)"/>
<rect x="970" y="910" width="60" height="60" fill="url(#_grad_)"/>
<rect x="1030" y="910" width="60" height="60" fill="url(#_grad_)"/>
<rect x="1150" y="910" width="60" height="60" fill="url(#_grad_)"/>
<rect x="1210" y="910" width="60" height="60" fill="url(#_grad_)"/>
<rect x="1450" y="910" width="60" height="60" fill="url(#_grad_)"/>
<rect x="1510" y="910" width="60" height="60" fill="url(#_grad_)"/>
<rect x="1570" y="910" width="60" height="60" fill="url(#_grad_)"/>
<rect x="1750" y="910" width="60" height="60" fill="url(#_grad_)"/>
<rect x="1930" y="910" width="60" height="60" fill="url(#_grad_)"/>
<rect x="70" y="970" width="60" height="60" fill="url(#_grad_)"/>
<rect x="190" y="970" width="60" height="60" fill="url(#_grad_)"/>
<rect x="250" y="970" width="60" height="60" fill="url(#_grad_)"/>
<rect x="370" y="970" width="60" height="60" fill="url(#_grad_)"/>
<rect x="490" y="970" width="60" height="60" fill="url(#_grad_)"/>
<rect x="730" y="970" width="60" height="60" fill="url(#_grad_)"/>
<rect x="790" y="970" width="60" height="60" fill="url(#_grad_)"/>
<rect x="910" y="970" width="60" height="60" fill="url(#_grad_)"/>
<rect x="1150" y="970" width="60" height="60" fill="url(#_grad_)"/>
<rect x="1210" y="970" width="60" height="60" fill="url(#_grad_)"/>
<rect x="1390" y="970" width="60" height="60" fill="url(#_grad_)"/>
<rect x="1450" y="970" width="60" height="60" fill="url(#_grad_)"/>
<rect x="1510" y="970" width="60" height="60" fill="url(#_grad_)"/>
<rect x="1630" y="970" width="60" height="60" fill="url(#_grad_)"/>
<rect x="1870" y="970" width="60" height="60" fill="url(#_grad_)"/>
<rect x="1990" y="970" width="60" height="60" fill="url(#_grad_)"/>
<rect x="250" y="1030" width="60" height="60" fill="url(#_grad_)"/>
<rect x="370" y="1030" width="60" height="60" fill="url(#_grad_)"/>
<rect x="430" y="1030" width="60" height="60" fill="url(#_grad_)"/>
<rect x="490" y="1030" width="60" height="60" fill="url(#_grad_)"/>
<rect x="550" y="1030" width="60" height="60" fill="url(#_grad_)"/>
<rect x="670" y="1030" width="60" height="60" fill="url(#_grad_)"/>
<rect x="910" y="1030" width="60" height="60" fill="url(#_grad_)"/>
<rect x="1270" y="1030" width="60" height="60" fill="url(#_grad_)"/>
<rect x="1510" y="1030" width="60" height="60" fill="url(#_grad_)"/>
<rect x="1570" y="1030" width="60" height="60" fill="url(#_grad_)"/>
<rect x="1690" y="1030" width="60" height="60" fill="url(#_grad_)"/>
<rect x="1750" y="1030" width="60" height="60" fill="url(#_grad_)"/>
<rect x="1810" y="1030" width="60" height="60" fill="url(#_grad_)"/>
<rect x="1870" y="1030" width="60" height="60" fill="url(#_grad_)"/>
<rect x="1990" y="1030" width="60" height="60" fill="url(#_grad_)"/>
<rect x="550" y="1090" width="60" height="60" fill="url(#_grad_)"/>
<rect x="910" y="1090" width="60" height="60" fill="url(#_grad_)"/>
<rect x="970" y="1090" width="60" height="60" fill="url(#_grad_)"/>
<rect x="1150" y="1090" width="60" height="60" fill="url(#_grad_)"/>
<rect x="1210" y="1090" width="60" height="60" fill="url(#_grad_)"/>
<rect x="1270" y="1090" width="60" height="60" fill="url(#_grad_)"/>
<rect x="1330" y="1090" width="60" height="60" fill="url(#_grad_)"/>
<rect x="1510" y="1090" width="60" height="60" fill="url(#_grad_)"/>
<rect x="1570" y="1090" width="60" height="60" fill="url(#_grad_)"/>
<rect x="1870" y="1090" width="60" height="60" fill="url(#_grad_)"/>
<rect x="1990" y="1090" width="60" height="60" fill="url(#_grad_)"/>
<rect x="250" y="1150" width="60" height="60" fill="url(#_grad_)"/>
<rect x="430" y="1150" width="60" height="60" fill="url(#_grad_)"/>
<rect x="610" y="1150" width="60" height="60" fill="url(#_grad_)"/>
<rect x="670" y="1150" width="60" height="60" fill="url(#_grad_)"/>
<rect x="790" y="1150" width="60" height="60" fill="url(#_grad_)"/>
<rect x="910" y="1150" width="60" height="60" fill="url(#_grad_)"/>
<rect x="970" y="1150" width="60" height="60" fill="url(#_grad_)"/>
<rect x="1030" y="1150" width="60" height="60" fill="url(#_grad_)"/>
<rect x="1090" y="1150" width="60" height="60" fill="url(#_grad_)"/>
<rect x="1150" y="1150" width="60" height="60" fill="url(#_grad_)"/>
<rect x="1210" y="1150" width="60" height="60" fill="url(#_grad_)"/>
<rect x="1270" y="1150" width="60" height="60" fill="url(#_grad_)"/>
<rect x="1390" y="1150" width="60" height="60" fill="url(#_grad_)"/>
<rect x="1750" y="1150" width="60" height="60" fill="url(#_grad_)"/>
<rect x="1810" y="1150" width="60" height="60" fill="url(#_grad_)"/>
<rect x="1870" y="1150" width="60" height="60" fill="url(#_grad_)"/>
<rect x="1930" y="1150" width="60" height="60" fill="url(#_grad_)"/>
<rect x="1990" y="1150" width="60" height="60" fill="url(#_grad_)"/>
<rect x="190" y="1210" width="60" height="60" fill="url(#_grad_)"/>
<rect x="250" y="1210" width="60" height="60" fill="url(#_grad_)"/>
<rect x="370" y="1210" width="60" height="60" fill="url(#_grad_)"/>
<rect x="550" y="1210" width="60" height="60" fill="url(#_grad_)"/>
<rect x="610" y="1210" width="60" height="60" fill="url(#_grad_)"/>
<rect x="730" y="1210" width="60" height="60" fill="url(#_grad_)"/>
<rect x="910" y="1210" width="60" height="60" fill="url(#_grad_)"/>
<rect x="1090" y="1210" width="60" height="60" fill="url(#_grad_)"/>
<rect x="1150" y="1210" width="60" height="60" fill="url(#_grad_)"/>
<rect x="1210" y="1210" width="60" height="60" fill="url(#_grad_)"/>
<rect x="1450" y="1210" width="60" height="60" fill="url(#_grad_)"/>
<rect x="1630" y="1210" width="60" height="60" fill="url(#_grad_)"/>
<rect x="1810" y="1210" width="60" height="60" fill="url(#_grad_)"/>
<rect x="1990" y="1210" width="60" height="60" fill="url(#_grad_)"/>
<rect x="250" y="1270" width="60" height="60" fill="url(#_grad_)"/>
<rect x="310" y="1270" width="60" height="60" fill="url(#_grad_)"/>
<rect x="370" y="1270" width="60" height="60" fill="url(#_grad_)"/>
<rect x="430" y="1270" width="60" height="60" fill="url(#_grad_)"/>
<rect x="550" y="1270" width="60" height="60" fill="url(#_grad_)"/>
<rect x="610" y="1270" width="60" height="60" fill="url(#_grad_)"/>
<rect x="730" y="1270" width="60" height="60" fill="url(#_grad_)"/>
<rect x="790" y="1270" width="60" height="60" fill="url(#_grad_)"/>
<rect x="910" y="1270" width="60" height="60" fill="url(#_grad_)"/>
<rect x="970" y="1270" width="60" height="60" fill="url(#_grad_)"/>
<rect x="1030" y="1270" width="60" height="60" fill="url(#_grad_)"/>
<rect x="1150" y="1270" width="60" height="60" fill="url(#_grad_)"/>
<rect x="1390" y="1270" width="60" height="60" fill="url(#_grad_)"/>
<rect x="1510" y="1270" width="60" height="60" fill="url(#_grad_)"/>
<rect x="1570" y="1270" width="60" height="60" fill="url(#_grad_)"/>
<rect x="1630" y="1270" width="60" height="60" fill="url(#_grad_)"/>
<rect x="1690" y="1270" width="60" height="60" fill="url(#_grad_)"/>
<rect x="1810" y="1270" width="60" height="60" fill="url(#_grad_)"/>
<rect x="1870" y="1270" width="60" height="60" fill="url(#_grad_)"/>
<rect x="70" y="1330" width="60" height="60" fill="url(#_grad_)"/>
<rect x="250" y="1330" width="60" height="60" fill="url(#_grad_)"/>
<rect x="550" y="1330" width="60" height="60" fill="url(#_grad_)"/>
<rect x="610" y="1330" width="60" height="60" fill="url(#_grad_)"/>
<rect x="790" y="1330" width="60" height="60" fill="url(#_grad_)"/>
<rect x="850" y="1330" width="60" height="60" fill="url(#_grad_)"/>
<rect x="910" y="1330" width="60" height="60" fill="url(#_grad_)"/>
<rect x="1030" y="1330" width="60" height="60" fill="url(#_grad_)"/>
<rect x="1150" y="1330" width="60" height="60" fill="url(#_grad_)"/>
<rect x="1270" y="1330" width="60" height="60" fill="url(#_grad_)"/>
<rect x="1330" y="1330" width="60" height="60" fill="url(#_grad_)"/>
<rect x="1390" y="1330" width="60" height="60" fill="url(#_grad_)"/>
<rect x="1510" y="1330" width="60" height="60" fill="url(#_grad_)"/>
<rect x="1570" y="1330" width="60" height="60" fill="url(#_grad_)"/>
<rect x="1630" y="1330" width="60" height="60" fill="url(#_grad_)"/>
<rect x="1750" y="1330" width="60" height="60" fill="url(#_grad_)"/>
<rect x="1810" y="1330" width="60" height="60" fill="url(#_grad_)"/>
<rect x="1870" y="1330" width="60" height="60" fill="url(#_grad_)"/>
<rect x="1930" y="1330" width="60" height="60" fill="url(#_grad_)"/>
<rect x="70" y="1390" width="60" height="60" fill="url(#_grad_)"/>
<rect x="310" y="1390" width="60" height="60" fill="url(#_grad_)"/>
<rect x="430" y="1390" width="60" height="60" fill="url(#_grad_)"/>
<rect x="490" y="1390" width="60" height="60" fill="url(#_grad_)"/>
<rect x="670" y="1390" width="60" height="60" fill="url(#_grad_)"/>
<rect x="730" y="1390" width="60" height="60" fill="url(#_grad_)"/>
<rect x="850" y="1390" width="60" height="60" fill="url(#_grad_)"/>
<rect x="910" y="1390" width="60" height="60" fill="url(#_grad_)"/>
<rect x="1090" y="1390" width="60" height="60" fill="url(#_grad_)"/>
<rect x="1150" y="1390" width="60" height="60" fill="url(#_grad_)"/>
<rect x="1210" y="1390" width="60" height="60" fill="url(#_grad_)"/>
<rect x="1390" y="1390" width="60" height="60" fill="url(#_grad_)"/>
<rect x="1510" y="1390" width="60" height="60" fill="url(#_grad_)"/>
<rect x="1570" y="1390" width="60" height="60" fill="url(#_grad_)"/>
<rect x="1690" y="1390" width="60" height="60" fill="url(#_grad_)"/>
<rect x="1750" y="1390" width="60" height="60" fill="url(#_grad_)"/>
<rect x="1930" y="1390" width="60" height="60" fill="url(#_grad_)"/>
<rect x="70" y="1450" width="60" height="60" fill="url(#_grad_)"/>
<rect x="190" y="1450" width="60" height="60" fill="url(#_grad_)"/>
<rect x="250" y="1450" width="60" height="60" fill="url(#_grad_)"/>
<rect x="490" y="1450" width="60" height="60" fill="url(#_grad_)"/>
<rect x="610" y="1450" width="60" height="60" fill="url(#_grad_)"/>
<rect x="790" y="1450" width="60" height="60" fill="url(#_grad_)"/>
<rect x="910" y="1450" width="60" height="60" fill="url(#_grad_)"/>
<rect x="1030" y="1450" width="60" height="60" fill="url(#_grad_)"/>
<rect x="1090" y="1450" width="60" height="60" fill="url(#_grad_)"/>
<rect x="1510" y="1450" width="60" height="60" fill="url(#_grad_)"/>
<rect x="1570" y="1450" width="60" height="60" fill="url(#_grad_)"/>
<rect x="1630" y="1450" width="60" height="60" fill="url(#_grad_)"/>
<rect x="1870" y="1450" width="60" height="60" fill="url(#_grad_)"/>
<rect x="1930" y="1450" width="60" height="60" fill="url(#_grad_)"/>
<rect x="1990" y="1450" width="60" height="60" fill="url(#_grad_)"/>
<rect x="70" y="1510" width="60" height="60" fill="url(#_grad_)"/>
<rect x="250" y="1510" width="60" height="60" fill="url(#_grad_)"/>
<rect x="370" y="1510" width="60" height="60" fill="url(#_grad_)"/>
<rect x="430" y="1510" width="60" height="60" fill="url(#_grad_)"/>
<rect x="550" y="1510" width="60" height="60" fill="url(#_grad_)"/>
<rect x="790" y="1510" width="60" height="60" fill="url(#_grad_)"/>
<rect x="850" y="1510" width="60" height="60" fill="url(#_grad_)"/>
<rect x="910" y="1510" width="60" height="60" fill="url(#_grad_)"/>
<rect x="970" y="1510" width="60" height="60" fill="url(#_grad_)"/>
<rect x="1030" y="1510" width="60" height="60" fill="url(#_grad_)"/>
<rect x="1090" y="1510" width="60" height="60" fill="url(#_grad_)"/>
<rect x="1150" y="1510" width="60" height="60" fill="url(#_grad_)"/>
<rect x="1210" y="1510" width="60" height="60" fill="url(#_grad_)"/>
<rect x="1330" y="1510" width="60" height="60" fill="url(#_grad_)"/>
<rect x="1390" y="1510" width="60" height="60" fill="url(#_grad_)"/>
<rect x="1510" y="1510" width="60" height="60" fill="url(#_grad_)"/>
<rect x="1570" y="1510" width="60" height="60" fill="url(#_grad_)"/>
<rect x="1630" y="1510" width="60" height="60" fill="url(#_grad_)"/>
<rect x="1690" y="1510" width="60" height="60" fill="url(#_grad_)"/>
<rect x="1750" y="1510" width="60" height="60" fill="url(#_grad_)"/>
<rect x="1930" y="1510" width="60" height="60" fill="url(#_grad_)"/>
<rect x="550" y="1570" width="60" height="60" fill="url(#_grad_)"/>
<rect x="610" y="1570" width="60" height="60" fill="url(#_grad_)"/>
<rect x="670" y="1570" width="60" height="60" fill="url(#_grad_)"/>
<rect x="730" y="1570" width="60" height="60" fill="url(#_grad_)"/>
<rect x="790" y="1570" width="60" height="60" fill="url(#_grad_)"/>
<rect x="910" y="1570" width="60" height="60" fill="url(#_grad_)"/>
<rect x="970" y="1570" width="60" height="60" fill="url(#_grad_)"/>
<rect x="1150" y="1570" width="60" height="60" fill="url(#_grad_)"/>
<rect x="1210" y="1570" width="60" height="60" fill="url(#_grad_)"/>
<rect x="1270" y="1570" width="60" height="60" fill="url(#_grad_)"/>
<rect x="1510" y="1570" width="60" height="60" fill="url(#_grad_)"/>
<rect x="1750" y="1570" width="60" height="60" fill="url(#_grad_)"/>
<rect x="1870" y="1570" width="60" height="60" fill="url(#_grad_)"/>
<rect x="1930" y="1570" width="60" height="60" fill="url(#_grad_)"/>
<rect x="1990" y="1570" width="60" height="60" fill="url(#_grad_)"/>
<rect x="70" y="1630" width="60" height="60" fill="url(#_grad_)"/>
<rect x="130" y="1630" width="60" height="60" fill="url(#_grad_)"/>
<rect x="190" y="1630" width="60" height="60" fill="url(#_grad_)"/>
<rect x="250" y="1630" width="60" height="60" fill="url(#_grad_)"/>
<rect x="310" y="1630" width="60" height="60" fill="url(#_grad_)"/>
<rect x="370" y="1630" width="60" height="60" fill="url(#_grad_)"/>
<rect x="430" y="1630" width="60" height="60" fill="url(#_grad_)"/>
<rect x="670" y="1630" width="60" height="60" fill="url(#_grad_)"/>
<rect x="790" y="1630" width="60" height="60" fill="url(#_grad_)"/>
<rect x="850" y="1630" width="60" height="60" fill="url(#_grad_)"/>
<rect x="910" y="1630" width="60" height="60" fill="url(#_grad_)"/>
<rect x="1030" y="1630" width="60" height="60" fill="url(#_grad_)"/>
<rect x="1270" y="1630" width="60" height="60" fill="url(#_grad_)"/>
<rect x="1390" y="1630" width="60" height="60" fill="url(#_grad_)"/>
<rect x="1450" y="1630" width="60" height="60" fill="url(#_grad_)"/>
<rect x="1510" y="1630" width="60" height="60" fill="url(#_grad_)"/>
<rect x="1630" y="1630" width="60" height="60" fill="url(#_grad_)"/>
<rect x="1750" y="1630" width="60" height="60" fill="url(#_grad_)"/>
<rect x="1930" y="1630" width="60" height="60" fill="url(#_grad_)"/>
<rect x="1990" y="1630" width="60" height="60" fill="url(#_grad_)"/>
<rect x="70" y="1690" width="60" height="60" fill="url(#_grad_)"/>
<rect x="430" y="1690" width="60" height="60" fill="url(#_grad_)"/>
<rect x="670" y="1690" width="60" height="60" fill="url(#_grad_)"/>
<rect x="850" y="1690" width="60" height="60" fill="url(#_grad_)"/>
<rect x="910" y="1690" width="60" height="60" fill="url(#_grad_)"/>
<rect x="1090" y="1690" width="60" height="60" fill="url(#_grad_)"/>
<rect x="1150" y="1690" width="60" height="60" fill="url(#_grad_)"/>
<rect x="1270" y="1690" width="60" height="60" fill="url(#_grad_)"/>
<rect x="1510" y="1690" width="60" height="60" fill="url(#_grad_)"/>
<rect x="1750" y="1690" width="60" height="60" fill="url(#_grad_)"/>
<rect x="1810" y="1690" width="60" height="60" fill="url(#_grad_)"/>
<rect x="1990" y="1690" width="60" height="60" fill="url(#_grad_)"/>
<rect x="70" y="1750" width="60" height="60" fill="url(#_grad_)"/>
<rect x="190" y="1750" width="60" height="60" fill="url(#_grad_)"/>
<rect x="250" y="1750" width="60" height="60" fill="url(#_grad_)"/>
<rect x="310" y="1750" width="60" height="60" fill="url(#_grad_)"/>
<rect x="430" y="1750" width="60" height="60" fill="url(#_grad_)"/>
<rect x="550" y="1750" width="60" height="60" fill="url(#_grad_)"/>
<rect x="610" y="1750" width="60" height="60" fill="url(#_grad_)"/>
<rect x="730" y="1750" width="60" height="60" fill="url(#_grad_)"/>
<rect x="790" y="1750" width="60" height="60" fill="url(#_grad_)"/>
<rect x="910" y="1750" width="60" height="60" fill="url(#_grad_)"/>
<rect x="1090" y="1750" width="60" height="60" fill="url(#_grad_)"/>
<rect x="1150" y="1750" width="60" height="60" fill="url(#_grad_)"/>
<rect x="1210" y="1750" width="60" height="60" fill="url(#_grad_)"/>
<rect x="1330" y="1750" width="60" height="60" fill="url(#_grad_)"/>
<rect x="1390" y="1750" width="60" height="60" fill="url(#_grad_)"/>
<rect x="1510" y="1750" width="60" height="60" fill="url(#_grad_)"/>
<rect x="1570" y="1750" width="60" height="60" fill="url(#_grad_)"/>
<rect x="1630" y="1750" width="60" height="60" fill="url(#_grad_)"/>
<rect x="1690" y="1750" width="60" height="60" fill="url(#_grad_)"/>
<rect x="1750" y="1750" width="60" height="60" fill="url(#_grad_)"/>
<rect x="70" y="1810" width="60" height="60" fill="url(#_grad_)"/>
<rect x="190" y="1810" width="60" height="60" fill="url(#_grad_)"/>
<rect x="250" y="1810" width="60" height="60" fill="url(#_grad_)"/>
<rect x="310" y="1810" width="60" height="60" fill="url(#_grad_)"/>
<rect x="430" y="1810" width="60" height="60" fill="url(#_grad_)"/>
<rect x="550" y="1810" width="60" height="60" fill="url(#_grad_)"/>
<rect x="610" y="1810" width="60" height="60" fill="url(#_grad_)"/>
<rect x="790" y="1810" width="60" height="60" fill="url(#_grad_)"/>
<rect x="850" y="1810" width="60" height="60" fill="url(#_grad_)"/>
<rect x="1150" y="1810" width="60" height="60" fill="url(#_grad_)"/>
<rect x="1210" y="1810" width="60" height="60" fill="url(#_grad_)"/>
<rect x="1270" y="1810" width="60" height="60" fill="url(#_grad_)"/>
<rect x="1330" y="1810" width="60" height="60" fill="url(#_grad_)"/>
<rect x="1450" y="1810" width="60" height="60" fill="url(#_grad_)"/>
<rect x="1570" y="1810" width="60" height="60" fill="url(#_grad_)"/>
<rect x="1690" y="1810" width="60" height="60" fill="url(#_grad_)"/>
<rect x="1810" y="1810" width="60" height="60" fill="url(#_grad_)"/>
<rect x="1870" y="1810" width="60" height="60" fill="url(#_grad_)"/>
<rect x="1930" y="1810" width="60" height="60" fill="url(#_grad_)"/>
<rect x="70" y="1870" width="60" height="60" fill="url(#_grad_)"/>
<rect x="190" y="1870" width="60" height="60" fill="url(#_grad_)"/>
<rect x="250" y="1870" width="60" height="60" fill="url(#_grad_)"/>
<rect x="310" y="1870" width="60" height="60" fill="url(#_grad_)"/>
<rect x="430" y="1870" width="60" height="60" fill="url(#_grad_)"/>
<rect x="550" y="1870" width="60" height="60" fill="url(#_grad_)"/>
<rect x="670" y="1870" width="60" height="60" fill="url(#_grad_)"/>
<rect x="730" y="1870" width="60" height="60" fill="url(#_grad_)"/>
<rect x="850" y="1870" width="60" height="60" fill="url(#_grad_)"/>
<rect x="910" y="1870" width="60" height="60" fill="url(#_grad_)"/>
<rect x="970" y="1870" width="60" height="60" fill="url(#_grad_)"/>
<rect x="1030" y="1870" width="60" height="60" fill="url(#_grad_)"/>
<rect x="1090" y="1870" width="60" height="60" fill="url(#_grad_)"/>
<rect x="1210" y="1870" width="60" height="60" fill="url(#_grad_)"/>
<rect x="1330" y="1870" width="60" height="60" fill="url(#_grad_)"/>
<rect x="1450" y="1870" width="60" height="60" fill="url(#_grad_)"/>
<rect x="1510" y="1870" width="60" height="60" fill="url(#_grad_)"/>
<rect x="1690" y="1870" width="60" height="60" fill="url(#_grad_)"/>
<rect x="1750" y="1870" width="60" height="60" fill="url(#_grad_)"/>
<rect x="1810" y="1870" width="60" height="60" fill="url(#_grad_)"/>
<rect x="70" y="1930" width="60" height="60" fill="url(#_grad_)"/>
<rect x="430" y="1930" width="60" height="60" fill="url(#_grad_)"/>
<rect x="610" y="1930" width="60" height="60" fill="url(#_grad_)"/>
<rect x="670" y="1930" width="60" height="60" fill="url(#_grad_)"/>
<rect x="1090" y="1930" width="60" height="60" fill="url(#_grad_)"/>
<rect x="1150" y="1930" width="60" height="60" fill="url(#_grad_)"/>
<rect x="1210" y="1930" width="60" height="60" fill="url(#_grad_)"/>
<rect x="1270" y="1930" width="60" height="60" fill="url(#_grad_)"/>
<rect x="1330" y="1930" width="60" height="60" fill="url(#_grad_)"/>
<rect x="1390" y="1930" width="60" height="60" fill="url(#_grad_)"/>
<rect x="1450" y="1930" width="60" height="60" fill="url(#_grad_)"/>
<rect x="1510" y="1930" width="60" height="60" fill="url(#_grad_)"/>
<rect x="1570" y="1930" width="60" height="60" fill="url(#_grad_)"/>
<rect x="1690" y="1930" width="60" height="60" fill="url(#_grad_)"/>
<rect x="1750" y="1930" width="60" height="60" fill="url(#_grad_)"/>
<rect x="1870" y="1930" width="60" height="60" fill="url(#_grad_)"/>
<rect x="1930" y="1930" width="60" height="60" fill="url(#_grad_)"/>
<rect x="1990" y="1930" width="60" height="60" fill="url(#_grad_)"/>
<rect x="70" y="1990" width="60" height="60" fill="url(#_grad_)"/>
<rect x="130" y="1990" width="60" height="60" fill="url(#_grad_)"/>
<rect x="190" y="1990" width="60" height="60" fill="url(#_grad_)"/>
<rect x="250" y="1990" width="60" height="60" fill="url(#_grad_)"/>
<rect x="310" y="1990" width="60" height="60" fill="url(#_grad_)"/>
<rect x="370" y="1990" width="60" height="60" fill="url(#_grad_)"/>
<rect x="430" y="1990" width="60" height="60" fill="url(#_grad_)"/>
<rect x="610" y="1990" width="60" height="60" fill="url(#_grad_)"/>
<rect x="970" y="1990" width="60" height="60" fill="url(#_grad_)"/>
<rect x="1030" y="1990" width="60" height="60" fill="url(#_grad_)"/>
<rect x="1090" y="1990" width="60" height="60" fill="url(#_grad_)"/>
<rect x="1270" y="1990" width="60" height="60" fill="url(#_grad_)"/>
<rect x="1450" y="1990" width="60" height="60" fill="url(#_grad_)"/>
<rect x="1510" y="1990" width="60" height="60" fill="url(#_grad_)"/>
<rect x="1630" y="1990" width="60" height="60" fill="url(#_grad_)"/>
<rect x="1870" y="1990" width="60" height="60" fill="url(#_grad_)"/>
<rect x="1930" y="1990" width="60" height="60" fill="url(#_grad_)"/>
</svg>

