<?xml version="1.0"?>

<svg xmlns="http://www.w3.org/2000/svg" xmlns:xlink="http://www.w3.org/1999/xlink" version="1.1" width="212px" height="212px" viewBox="0 0 212 212">
<defs/>
<rect x="7" y="7" width="6" height="6" fill="#0a0a0a"/>
<rect x="13" y="7" width="6" height="6" fill="#0a0a0a"/>
<rect x="19" y="7" width="6" height="6" fill="#0a0a0a"/>
<rect x="25" y="7" width="6" height="6" fill="#0a0a0a"/>
<rect x="31" y="7" width="6" height="6" fill="#0a0a0a"/>
<rect x="37" y="7" width="6" height="6" fill="#0a0a0a"/>
<rect x="43" y="7" width="6" height="6" fill="#0a0a0a"/>
<rect x="55" y="7" width="6" height="6" fill="#0a0a0a"/>
<rect x="73" y="7" width="6" height="6" fill="#0a0a0a"/>
<rect x="79" y="7" width="6" height="6" fill="#0a0a0a"/>
<rect x="103" y="7" width="6" height="6" fill="#0a0a0a"/>
<rect x="115" y="7" width="6" height="6" fill="#0a0a0a"/>
<rect x="121" y="7" width="6" height="6" fill="#0a0a0a"/>
<rect x="127" y="7" width="6" height="6" fill="#0a0a0a"/>
<rect x="133" y="7" width="6" height="6" fill="#0a0a0a"/>
<rect x="139" y="7" width="6" height="6" fill="#0a0a0a"/>
<rect x="145" y="7" width="6" height="6" fill="#0a0a0a"/>
<rect x="151" y="7" width="6" height="6" fill="#0a0a0a"/>
<rect x="163" y="7" width="6" height="6" fill="#0a0a0a"/>
<rect x="169" y="7" width="6" height="6" fill="#0a0a0a"/>
<rect x="175" y="7" width="6" height="6" fill="#0a0a0a"/>
<rect x="181" y="7" width="6" height="6" fill="#0a0a0a"/>
<rect x="187" y="7" width="6" height="6" fill="#0a0a0a"/>
<rect x="193" y="7" width="6" height="6" fill="#0a0a0a"/>
<rect x="199" y="7" width="6" height="6" fill="#0a0a0a"/>
<rect x="7" y="13" width="6" height="6" fill="#0a0a0a"/>
<rect x="43" y="13" width="6" height="6" fill="#0a0a0a"/>
<rect x="55" y="13" width="6" height="6" fill="#0a0a0a"/>
<rect x="67" y="13" width="6" height="6" fill="#0a0a0a"/>
<rect x="73" y="13" width="6" height="6" fill="#0a0a0a"/>
<rect x="91" y="13" width="6" height="6" fill="#0a0a0a"/>
<rect x="103" y="13" width="6" height="6" fill="#0a0a0a"/>
<rect x="121" y="13" width="6" height="6" fill="#0a0a0a"/>
<rect x="127" y="13" width="6" height="6" fill="#0a0a0a"/>
<rect x="139" y="13" width="6" height="6" fill="#0a0a0a"/>
<rect x="163" y="13" width="6" height="6" fill="#0a0a0a"/>
<rect x="199" y="13" width="6" height="6" fill="#0a0a0a"/>
<rect x="7" y="19" width="6" height="6" fill="#0a0a0a"/>
<rect x="19" y="19" width="6" height="6" fill="#0a0a0a"/>
<rect x="25" y="19" width="6" height="6" fill="#0a0a0a"/>
<rect x="31" y="19" width="6" height="6" fill="#0a0a0a"/>
<rect x="43" y="19" width="6" height="6" fill="#0a0a0a"/>
<rect x="55" y="19" width="6" height="6" fill="#0a0a0a"/>
<rect x="61" y="19" width="6" height="6" fill="#0a0a0a"/>
<rect x="67" y="19" width="6" height="6" fill="#0a0a0a"/>
<rect x="73" y="19" width="6" height="6" fill="#0a0a0a"/>
<rect x="79" y="19" width="6" height="6" fill="#0a0a0a"/>
<rect x="85" y="19" width="6" height="6" fill="#0a0a0a"/>
<rect x="91" y="19" width="6" height="6" fill="#0a0a0a"/>
<rect x="97" y="19" width="6" height="6" fill="#0a0a0a"/>
<rect x="109" y="19" width="6" height="6" fill="#0a0a0a"/>
<rect x="127" y="19" width="6" height="6" fill="#0a0a0a"/>
<rect x="133" y="19" width="6" height="6" fill="#0a0a0a"/>
<rect x="139" y="19" width="6" height="6" fill="#0a0a0a"/>
<rect x="145" y="19" width="6" height="6" fill="#0a0a0a"/>
<rect x="163" y="19" width="6" height="6" fill="#0a0a0a"/>
<rect x="175" y="19" width="6" height="6" fill="#0a0a0a"/>
<rect x="181" y="19" width="6" height="6" fill="#0a0a0a"/>
<rect x="187" y="19" width="6" height="6" fill="#0a0a0a"/>
<rect x="199" y="19" width="6" height="6" fill="#0a0a0a"/>
<rect x="7" y="25" width="6" height="6" fill="#0a0a0a"/>
<rect x="19" y="25" width="6" height="6" fill="#0a0a0a"/>
<rect x="25" y="25" width="6" height="6" fill="#0a0a0a"/>
<rect x="31" y="25" width="6" height="6" fill="#0a0a0a"/>
<rect x="43" y="25" width="6" height="6" fill="#0a0a0a"/>
<rect x="61" y="25" width="6" height="6" fill="#0a0a0a"/>
<rect x="67" y="25" width="6" height="6" fill="#0a0a0a"/>
<rect x="79" y="25" width="6" height="6" fill="#0a0a0a"/>
<rect x="97" y="25" width="6" height="6" fill="#0a0a0a"/>
<rect x="103" y="25" width="6" height="6" fill="#0a0a0a"/>
<rect x="109" y="25" width="6" height="6" fill="#0a0a0a"/>
<rect x="115" y="25" width="6" height="6" fill="#0a0a0a"/>
<rect x="121" y="25" width="6" height="6" fill="#0a0a0a"/>
<rect x="151" y="25" width="6" height="6" fill="#0a0a0a"/>
<rect x="163" y="25" width="6" height="6" fill="#0a0a0a"/>
<rect x="175" y="25" width="6" height="6" fill="#0a0a0a"/>
<rect x="181" y="25" width="6" height="6" fill="#0a0a0a"/>
<rect x="187" y="25" width="6" height="6" fill="#0a0a0a"/>
<rect x="199" y="25" width="6" height="6" fill="#0a0a0a"/>
<rect x="7" y="31" width="6" height="6" fill="#0a0a0a"/>
<rect x="19" y="31" width="6" height="6" fill="#0a0a0a"/>
<rect x="25" y="31" width="6" height="6" fill="#0a0a0a"/>
<rect x="31" y="31" width="6" height="6" fill="#0a0a0a"/>
<rect x="43" y="31" width="6" height="6" fill="#0a0a0a"/>
<rect x="73" y="31" width="6" height="6" fill="#0a0a0a"/>
<rect x="85" y="31" width="6" height="6" fill="#0a0a0a"/>
<rect x="97" y="31" width="6" height="6" fill="#0a0a0a"/>
<rect x="109" y="31" width="6" height="6" fill="#0a0a0a"/>
<rect x="127" y="31" width="6" height="6" fill="#0a0a0a"/>
<rect x="133" y="31" width="6" height="6" fill="#0a0a0a"/>
<rect x="139" y="31" width="6" height="6" fill="#0a0a0a"/>
<rect x="163" y="31" width="6" height="6" fill="#0a0a0a"/>
<rect x="175" y="31" width="6" height="6" fill="#0a0a0a"/>
<rect x="181" y="31" width="6" height="6" fill="#0a0a0a"/>
<rect x="187" y="31" width="6" height="6" fill="#0a0a0a"/>
<rect x="199" y="31" width="6" height="6" fill="#0a0a0a"/>
<rect x="7" y="37" width="6" height="6" fill="#0a0a0a"/>
<rect x="43" y="37" width="6" height="6" fill="#0a0a0a"/>
<rect x="55" y="37" width="6" height="6" fill="#0a0a0a"/>
<rect x="67" y="37" width="6" height="6" fill="#0a0a0a"/>
<rect x="79" y="37" width="6" height="6" fill="#0a0a0a"/>
<rect x="85" y="37" width="6" height="6" fill="#0a0a0a"/>
<rect x="91" y="37" width="6" height="6" fill="#0a0a0a"/>
<rect x="139" y="37" width="6" height="6" fill="#0a0a0a"/>
<rect x="145" y="37" width="6" height="6" fill="#0a0a0a"/>
<rect x="151" y="37" width="6" height="6" fill="#0a0a0a"/>
<rect x="163" y="37" width="6" height="6" fill="#0a0a0a"/>
<rect x="199" y="37" width="6" height="6" fill="#0a0a0a"/>
<rect x="7" y="43" width="6" height="6" fill="#0a0a0a"/>
<rect x="13" y="43" width="6" height="6" fill="#0a0a0a"/>
<rect x="19" y="43" width="6" height="6" fill="#0a0a0a"/>
<rect x="25" y="43" width="6" height="6" fill="#0a0a0a"/>
<rect x="31" y="43" width="6" height="6" fill="#0a0a0a"/>
<rect x="37" y="43" width="6" height="6" fill="#0a0a0a"/>
<rect x="43" y="43" width="6" height="6" fill="#0a0a0a"/>
<rect x="55" y="43" width="6" height="6" fill="#0a0a0a"/>
<rect x="67" y="43" width="6" height="6" fill="#0a0a0a"/>
<rect x="79" y="43" width="6" height="6" fill="#0a0a0a"/>
<rect x="91" y="43" width="6" height="6" fill="#0a0a0a"/>
<rect x="103" y="43" width="6" height="6" fill="#0a0a0a"/>
<rect x="115" y="43" width="6" height="6" fill="#0a0a0a"/>
<rect x="127" y="43" width="6" height="6" fill="#0a0a0a"/>
<rect x="139" y="43" width="6" height="6" fill="#0a0a0a"/>
<rect x="151" y="43" width="6" height="6" fill="#0a0a0a"/>
<rect x="163" y="43" width="6" height="6" fill="#0a0a0a"/>
<rect x="169" y="43" width="6" height="6" fill="#0a0a0a"/>
<rect x="175" y="43" width="6" height="6" fill="#0a0a0a"/>
<rect x="181" y="43" width="6" height="6" fill="#0a0a0a"/>
<rect x="187" y="43" width="6" height="6" fill="#0a0a0a"/>
<rect x="193" y="43" width="6" height="6" fill="#0a0a0a"/>
<rect x="199" y="43" width="6" height="6" fill="#0a0a0a"/>
<rect x="55" y="49" width="6" height="6" fill="#0a0a0a"/>
<rect x="85" y="49" width="6" height="6" fill="#0a0a0a"/>
<rect x="91" y="49" width="6" height="6" fill="#0a0a0a"/>
<rect x="97" y="49" width="6" height="6" fill="#0a0a0a"/>
<rect x="121" y="49" width="6" height="6" fill="#0a0a0a"/>
<rect x="127" y="49" width="6" height="6" fill="#0a0a0a"/>
<rect x="133" y="49" width="6" height="6" fill="#0a0a0a"/>
<rect x="145" y="49" width="6" height="6" fill="#0a0a0a"/>
<rect x="19" y="55" width="6" height="6" fill="#0a0a0a"/>
<rect x="25" y="55" width="6" height="6" fill="#0a0a0a"/>
<rect x="31" y="55" width="6" height="6" fill="#0a0a0a"/>
<rect x="43" y="55" width="6" height="6" fill="#0a0a0a"/>
<rect x="55" y="55" width="6" height="6" fill="#0a0a0a"/>
<rect x="61" y="55" width="6" height="6" fill="#0a0a0a"/>
<rect x="67" y="55" width="6" height="6" fill="#0a0a0a"/>
<rect x="85" y="55" width="6" height="6" fill="#0a0a0a"/>
<rect x="97" y="55" width="6" height="6" fill="#0a0a0a"/>
<rect x="109" y="55" width="6" height="6" fill="#0a0a0a"/>
<rect x="115" y="55" width="6" height="6" fill="#0a0a0a"/>
<rect x="127" y="55" width="6" height="6" fill="#0a0a0a"/>
<rect x="133" y="55" width="6" height="6" fill="#0a0a0a"/>
<rect x="139" y="55" width="6" height="6" fill="#0a0a0a"/>
<rect x="145" y="55" width="6" height="6" fill="#0a0a0a"/>
<rect x="157" y="55" width="6" height="6" fill="#0a0a0a"/>
<rect x="163" y="55" width="6" height="6" fill="#0a0a0a"/>
<rect x="169" y="55" width="6" height="6" fill="#0a0a0a"/>
<rect x="187" y="55" width="6" height="6" fill="#0a0a0a"/>
<rect x="193" y="55" width="6" height="6" fill="#0a0a0a"/>
<rect x="199" y="55" width="6" height="6" fill="#0a0a0a"/>
<rect x="7" y="61" width="6" height="6" fill="#0a0a0a"/>
<rect x="31" y="61" width="6" height="6" fill="#0a0a0a"/>
<rect x="49" y="61" width="6" height="6" fill="#0a0a0a"/>
<rect x="61" y="61" width="6" height="6" fill="#0a0a0a"/>
<rect x="67" y="61" width="6" height="6" fill="#0a0a0a"/>
<rect x="91" y="61" width="6" height="6" fill="#0a0a0a"/>
<rect x="97" y="61" width="6" height="6" fill="#0a0a0a"/>
<rect x="109" y="61" width="6" height="6" fill="#0a0a0a"/>
<rect x="115" y="61" width="6" height="6" fill="#0a0a0a"/>
<rect x="133" y="61" width="6" height="6" fill="#0a0a0a"/>
<rect x="139" y="61" width="6" height="6" fill="#0a0a0a"/>
<rect x="145" y="61" width="6" height="6" fill="#0a0a0a"/>
<rect x="151" y="61" width="6" height="6" fill="#0a0a0a"/>
<rect x="181" y="61" width="6" height="6" fill="#0a0a0a"/>
<rect x="187" y="61" width="6" height="6" fill="#0a0a0a"/>
<rect x="193" y="61" width="6" height="6" fill="#0a0a0a"/>
<rect x="199" y="61" width="6" height="6" fill="#0a0a0a"/>
<rect x="7" y="67" width="6" height="6" fill="#0a0a0a"/>
<rect x="19" y="67" width="6" height="6" fill="#0a0a0a"/>
<rect x="37" y="67" width="6" height="6" fill="#0a0a0a"/>
<rect x="43" y="67" width="6" height="6" fill="#0a0a0a"/>
<rect x="61" y="67" width="6" height="6" fill="#0a0a0a"/>
<rect x="85" y="67" width="6" height="6" fill="#0a0a0a"/>
<rect x="91" y="67" width="6" height="6" fill="#0a0a0a"/>
<rect x="97" y="67" width="6" height="6" fill="#0a0a0a"/>
<rect x="109" y="67" width="6" height="6" fill="#0a0a0a"/>
<rect x="115" y="67" width="6" height="6" fill="#0a0a0a"/>
<rect x="121" y="67" width="6" height="6" fill="#0a0a0a"/>
<rect x="127" y="67" width="6" height="6" fill="#0a0a0a"/>
<rect x="133" y="67" width="6" height="6" fill="#0a0a0a"/>
<rect x="151" y="67" width="6" height="6" fill="#0a0a0a"/>
<rect x="157" y="67" width="6" height="6" fill="#0a0a0a"/>
<rect x="175" y="67" width="6" height="6" fill="#0a0a0a"/>
<rect x="193" y="67" width="6" height="6" fill="#0a0a0a"/>
<rect x="199" y="67" width="6" height="6" fill="#0a0a0a"/>
<rect x="13" y="73" width="6" height="6" fill="#0a0a0a"/>
<rect x="19" y="73" width="6" height="6" fill="#0a0a0a"/>
<rect x="31" y="73" width="6" height="6" fill="#0a0a0a"/>
<rect x="37" y="73" width="6" height="6" fill="#0a0a0a"/>
<rect x="61" y="73" width="6" height="6" fill="#0a0a0a"/>
<rect x="73" y="73" width="6" height="6" fill="#0a0a0a"/>
<rect x="97" y="73" width="6" height="6" fill="#0a0a0a"/>
<rect x="103" y="73" width="6" height="6" fill="#0a0a0a"/>
<rect x="127" y="73" width="6" height="6" fill="#0a0a0a"/>
<rect x="133" y="73" width="6" height="6" fill="#0a0a0a"/>
<rect x="139" y="73" width="6" height="6" fill="#0a0a0a"/>
<rect x="145" y="73" width="6" height="6" fill="#0a0a0a"/>
<rect x="157" y="73" width="6" height="6" fill="#0a0a0a"/>
<rect x="163" y="73" width="6" height="6" fill="#0a0a0a"/>
<rect x="181" y="73" width="6" height="6" fill="#0a0a0a"/>
<rect x="199" y="73" width="6" height="6" fill="#0a0a0a"/>
<rect x="7" y="79" width="6" height="6" fill="#0a0a0a"/>
<rect x="13" y="79" width="6" height="6" fill="#0a0a0a"/>
<rect x="37" y="79" width="6" height="6" fill="#0a0a0a"/>
<rect x="43" y="79" width="6" height="6" fill="#0a0a0a"/>
<rect x="49" y="79" width="6" height="6" fill="#0a0a0a"/>
<rect x="55" y="79" width="6" height="6" fill="#0a0a0a"/>
<rect x="61" y="79" width="6" height="6" fill="#0a0a0a"/>
<rect x="67" y="79" width="6" height="6" fill="#0a0a0a"/>
<rect x="73" y="79" width="6" height="6" fill="#0a0a0a"/>
<rect x="91" y="79" width="6" height="6" fill="#0a0a0a"/>
<rect x="103" y="79" width="6" height="6" fill="#0a0a0a"/>
<rect x="115" y="79" width="6" height="6" fill="#0a0a0a"/>
<rect x="121" y="79" width="6" height="6" fill="#0a0a0a"/>
<rect x="127" y="79" width="6" height="6" fill="#0a0a0a"/>
<rect x="133" y="79" width="6" height="6" fill="#0a0a0a"/>
<rect x="157" y="79" width="6" height="6" fill="#0a0a0a"/>
<rect x="169" y="79" width="6" height="6" fill="#0a0a0a"/>
<rect x="187" y="79" width="6" height="6" fill="#0a0a0a"/>
<rect x="13" y="85" width="6" height="6" fill="#0a0a0a"/>
<rect x="25" y="85" width="6" height="6" fill="#0a0a0a"/>
<rect x="31" y="85" width="6" height="6" fill="#0a0a0a"/>
<rect x="49" y="85" width="6" height="6" fill="#0a0a0a"/>
<rect x="61" y="85" width="6" height="6" fill="#0a0a0a"/>
<rect x="79" y="85" width="6" height="6" fill="#0a0a0a"/>
<rect x="85" y="85" width="6" height="6" fill="#0a0a0a"/>
<rect x="91" y="85" width="6" height="6" fill="#0a0a0a"/>
<rect x="115" y="85" width="6" height="6" fill="#0a0a0a"/>
<rect x="121" y="85" width="6" height="6" fill="#0a0a0a"/>
<rect x="127" y="85" width="6" height="6" fill="#0a0a0a"/>
<rect x="133" y="85" width="6" height="6" fill="#0a0a0a"/>
<rect x="139" y="85" width="6" height="6" fill="#0a0a0a"/>
<rect x="157" y="85" width="6" height="6" fill="#0a0a0a"/>
<rect x="169" y="85" width="6" height="6" fill="#0a0a0a"/>
<rect x="181" y="85" width="6" height="6" fill="#0a0a0a"/>
<rect x="187" y="85" width="6" height="6" fill="#0a0a0a"/>
<rect x="13" y="91" width="6" height="6" fill="#0a0a0a"/>
<rect x="19" y="91" width="6" height="6" fill="#0a0a0a"/>
<rect x="43" y="91" width="6" height="6" fill="#0a0a0a"/>
<rect x="49" y="91" width="6" height="6" fill="#0a0a0a"/>
<rect x="55" y="91" width="6" height="6" fill="#0a0a0a"/>
<rect x="61" y="91" width="6" height="6" fill="#0a0a0a"/>
<rect x="79" y="91" width="6" height="6" fill="#0a0a0a"/>
<rect x="85" y="91" width="6" height="6" fill="#0a0a0a"/>
<rect x="97" y="91" width="6" height="6" fill="#0a0a0a"/>
<rect x="103" y="91" width="6" height="6" fill="#0a0a0a"/>
<rect x="115" y="91" width="6" height="6" fill="#0a0a0a"/>
<rect x="121" y="91" width="6" height="6" fill="#0a0a0a"/>
<rect x="145" y="91" width="6" height="6" fill="#0a0a0a"/>
<rect x="151" y="91" width="6" height="6" fill="#0a0a0a"/>
<rect x="157" y="91" width="6" height="6" fill="#0a0a0a"/>
<rect x="175" y="91" width="6" height="6" fill="#0a0a0a"/>
<rect x="193" y="91" width="6" height="6" fill="#0a0a0a"/>
<rect x="7" y="97" width="6" height="6" fill="#0a0a0a"/>
<rect x="19" y="97" width="6" height="6" fill="#0a0a0a"/>
<rect x="25" y="97" width="6" height="6" fill="#0a0a0a"/>
<rect x="37" y="97" width="6" height="6" fill="#0a0a0a"/>
<rect x="49" y="97" width="6" height="6" fill="#0a0a0a"/>
<rect x="73" y="97" width="6" height="6" fill="#0a0a0a"/>
<rect x="79" y="97" width="6" height="6" fill="#0a0a0a"/>
<rect x="91" y="97" width="6" height="6" fill="#0a0a0a"/>
<rect x="115" y="97" width="6" height="6" fill="#0a0a0a"/>
<rect x="121" y="97" width="6" height="6" fill="#0a0a0a"/>
<rect x="139" y="97" width="6" height="6" fill="#0a0a0a"/>
<rect x="145" y="97" width="6" height="6" fill="#0a0a0a"/>
<rect x="151" y="97" width="6" height="6" fill="#0a0a0a"/>
<rect x="163" y="97" width="6" height="6" fill="#0a0a0a"/>
<rect x="187" y="97" width="6" height="6" fill="#0a0a0a"/>
<rect x="199" y="97" width="6" height="6" fill="#0a0a0a"/>
<rect x="25" y="103" width="6" height="6" fill="#0a0a0a"/>
<rect x="37" y="103" width="6" height="6" fill="#0a0a0a"/>
<rect x="43" y="103" width="6" height="6" fill="#0a0a0a"/>
<rect x="49" y="103" width="6" height="6" fill="#0a0a0a"/>
<rect x="55" y="103" width="6" height="6" fill="#0a0a0a"/>
<rect x="67" y="103" width="6" height="6" fill="#0a0a0a"/>
<rect x="91" y="103" width="6" height="6" fill="#0a0a0a"/>
<rect x="127" y="103" width="6" height="6" fill="#0a0a0a"/>
<rect x="151" y="103" width="6" height="6" fill="#0a0a0a"/>
<rect x="157" y="103" width="6" height="6" fill="#0a0a0a"/>
<rect x="169" y="103" width="6" height="6" fill="#0a0a0a"/>
<rect x="175" y="103" width="6" height="6" fill="#0a0a0a"/>
<rect x="181" y="103" width="6" height="6" fill="#0a0a0a"/>
<rect x="187" y="103" width="6" height="6" fill="#0a0a0a"/>
<rect x="199" y="103" width="6" height="6" fill="#0a0a0a"/>
<rect x="55" y="109" width="6" height="6" fill="#0a0a0a"/>
<rect x="91" y="109" width="6" height="6" fill="#0a0a0a"/>
<rect x="97" y="109" width="6" height="6" fill="#0a0a0a"/>
<rect x="115" y="109" width="6" height="6" fill="#0a0a0a"/>
<rect x="121" y="109" width="6" height="6" fill="#0a0a0a"/>
<rect x="127" y="109" width="6" height="6" fill="#0a0a0a"/>
<rect x="133" y="109" width="6" height="6" fill="#0a0a0a"/>
<rect x="151" y="109" width="6" height="6" fill="#0a0a0a"/>
<rect x="157" y="109" width="6" height="6" fill="#0a0a0a"/>
<rect x="187" y="109" width="6" height="6" fill="#0a0a0a"/>
<rect x="199" y="109" width="6" height="6" fill="#0a0a0a"/>
<rect x="25" y="115" width="6" height="6" fill="#0a0a0a"/>
<rect x="43" y="115" width="6" height="6" fill="#0a0a0a"/>
<rect x="61" y="115" width="6" height="6" fill="#0a0a0a"/>
<rect x="67" y="115" width="6" height="6" fill="#0a0a0a"/>
<rect x="79" y="115" width="6" height="6" fill="#0a0a0a"/>
<rect x="91" y="115" width="6" height="6" fill="#0a0a0a"/>
<rect x="97" y="115" width="6" height="6" fill="#0a0a0a"/>
<rect x="103" y="115" width="6" height="6" fill="#0a0a0a"/>
<rect x="109" y="115" width="6" height="6" fill="#0a0a0a"/>
<rect x="115" y="115" width="6" height="6" fill="#0a0a0a"/>
<rect x="121" y="115" width="6" height="6" fill="#0a0a0a"/>
<rect x="127" y="115" width="6" height="6" fill="#0a0a0a"/>
<rect x="139" y="115" width="6" height="6" fill="#0a0a0a"/>
<rect x="175" y="115" width="6" height="6" fill="#0a0a0a"/>
<rect x="181" y="115" width="6" height="6" fill="#0a0a0a"/>
<rect x="187" y="115" width="6" height="6" fill="#0a0a0a"/>
<rect x="193" y="115" width="6" height="6" fill="#0a0a0a"/>
<rect x="199" y="115" width="6" height="6" fill="#0a0a0a"/>
<rect x="19" y="121" width="6" height="6" fill="#0a0a0a"/>
<rect x="25" y="121" width="6" height="6" fill="#0a0a0a"/>
<rect x="37" y="121" width="6" height="6" fill="#0a0a0a"/>
<rect x="55" y="121" width="6" height="6" fill="#0a0a0a"/>
<rect x="61" y="121" width="6" height="6" fill="#0a0a0a"/>
<rect x="73" y="121" width="6" height="6" fill="#0a0a0a"/>
<rect x="91" y="121" width="6" height="6" fill="#0a0a0a"/>
<rect x="109" y="121" width="6" height="6" fill="#0a0a0a"/>
<rect x="115" y="121" width="6" height="6" fill="#0a0a0a"/>
<rect x="121" y="121" width="6" height="6" fill="#0a0a0a"/>
<rect x="145" y="121" width="6" height="6" fill="#0a0a0a"/>
<rect x="163" y="121" width="6" height="6" fill="#0a0a0a"/>
<rect x="181" y="121" width="6" height="6" fill="#0a0a0a"/>
<rect x="199" y="121" width="6" height="6" fill="#0a0a0a"/>
<rect x="25" y="127" width="6" height="6" fill="#0a0a0a"/>
<rect x="31" y="127" width="6" height="6" fill="#0a0a0a"/>
<rect x="37" y="127" width="6" height="6" fill="#0a0a0a"/>
<rect x="43" y="127" width="6" height="6" fill="#0a0a0a"/>
<rect x="55" y="127" width="6" height="6" fill="#0a0a0a"/>
<rect x="61" y="127" width="6" height="6" fill="#0a0a0a"/>
<rect x="73" y="127" width="6" height="6" fill="#0a0a0a"/>
<rect x="79" y="127" width="6" height="6" fill="#0a0a0a"/>
<rect x="91" y="127" width="6" height="6" fill="#0a0a0a"/>
<rect x="97" y="127" width="6" height="6" fill="#0a0a0a"/>
<rect x="103" y="127" width="6" height="6" fill="#0a0a0a"/>
<rect x="115" y="127" width="6" height="6" fill="#0a0a0a"/>
<rect x="139" y="127" width="6" height="6" fill="#0a0a0a"/>
<rect x="151" y="127" width="6" height="6" fill="#0a0a0a"/>
<rect x="157" y="127" width="6" height="6" fill="#0a0a0a"/>
<rect x="163" y="127" width="6" height="6" fill="#0a0a0a"/>
<rect x="169" y="127" width="6" height="6" fill="#0a0a0a"/>
<rect x="181" y="127" width="6" height="6" fill="#0a0a0a"/>
<rect x="187" y="127" width="6" height="6" fill="#0a0a0a"/>
<rect x="7" y="133" width="6" height="6" fill="#0a0a0a"/>
<rect x="25" y="133" width="6" height="6" fill="#0a0a0a"/>
<rect x="55" y="133" width="6" height="6" fill="#0a0a0a"/>
<rect x="61" y="133" width="6" height="6" fill="#0a0a0a"/>
<rect x="79" y="133" width="6" height="6" fill="#0a0a0a"/>
<rect x="85" y="133" width="6" height="6" fill="#0a0a0a"/>
<rect x="91" y="133" width="6" height="6" fill="#0a0a0a"/>
<rect x="103" y="133" width="6" height="6" fill="#0a0a0a"/>
<rect x="115" y="133" width="6" height="6" fill="#0a0a0a"/>
<rect x="127" y="133" width="6" height="6" fill="#0a0a0a"/>
<rect x="133" y="133" width="6" height="6" fill="#0a0a0a"/>
<rect x="139" y="133" width="6" height="6" fill="#0a0a0a"/>
<rect x="151" y="133" width="6" height="6" fill="#0a0a0a"/>
<rect x="157" y="133" width="6" height="6" fill="#0a0a0a"/>
<rect x="163" y="133" width="6" height="6" fill="#0a0a0a"/>
<rect x="175" y="133" width="6" height="6" fill="#0a0a0a"/>
<rect x="181" y="133" width="6" height="6" fill="#0a0a0a"/>
<rect x="187" y="133" width="6" height="6" fill="#0a0a0a"/>
<rect x="193" y="133" width="6" height="6" fill="#0a0a0a"/>
<rect x="7" y="139" width="6" height="6" fill="#0a0a0a"/>
<rect x="31" y="139" width="6" height="6" fill="#0a0a0a"/>
<rect x="43" y="139" width="6" height="6" fill="#0a0a0a"/>
<rect x="49" y="139" width="6" height="6" fill="#0a0a0a"/>
<rect x="67" y="139" width="6" height="6" fill="#0a0a0a"/>
<rect x="73" y="139" width="6" height="6" fill="#0a0a0a"/>
<rect x="85" y="139" width="6" height="6" fill="#0a0a0a"/>
<rect x="91" y="139" width="6" height="6" fill="#0a0a0a"/>
<rect x="109" y="139" width="6" height="6" fill="#0a0a0a"/>
<rect x="115" y="139" width="6" height="6" fill="#0a0a0a"/>
<rect x="121" y="139" width="6" height="6" fill="#0a0a0a"/>
<rect x="139" y="139" width="6" height="6" fill="#0a0a0a"/>
<rect x="151" y="139" width="6" height="6" fill="#0a0a0a"/>
<rect x="157" y="139" width="6" height="6" fill="#0a0a0a"/>
<rect x="169" y="139" width="6" height="6" fill="#0a0a0a"/>
<rect x="175" y="139" width="6" height="6" fill="#0a0a0a"/>
<rect x="193" y="139" width="6" height="6" fill="#0a0a0a"/>
<rect x="7" y="145" width="6" height="6" fill="#0a0a0a"/>
<rect x="19" y="145" width="6" height="6" fill="#0a0a0a"/>
<rect x="25" y="145" width="6" height="6" fill="#0a0a0a"/>
<rect x="49" y="145" width="6" height="6" fill="#0a0a0a"/>
<rect x="61" y="145" width="6" height="6" fill="#0a0a0a"/>
<rect x="79" y="145" width="6" height="6" fill="#0a0a0a"/>
<rect x="91" y="145" width="6" height="6" fill="#0a0a0a"/>
<rect x="103" y="145" width="6" height="6" fill="#0a0a0a"/>
<rect x="109" y="145" width="6" height="6" fill="#0a0a0a"/>
<rect x="151" y="145" width="6" height="6" fill="#0a0a0a"/>
<rect x="157" y="145" width="6" height="6" fill="#0a0a0a"/>
<rect x="163" y="145" width="6" height="6" fill="#0a0a0a"/>
<rect x="187" y="145" width="6" height="6" fill="#0a0a0a"/>
<rect x="193" y="145" width="6" height="6" fill="#0a0a0a"/>
<rect x="199" y="145" width="6" height="6" fill="#0a0a0a"/>
<rect x="7" y="151" width="6" height="6" fill="#0a0a0a"/>
<rect x="25" y="151" width="6" height="6" fill="#0a0a0a"/>
<rect x="37" y="151" width="6" height="6" fill="#0a0a0a"/>
<rect x="43" y="151" width="6" height="6" fill="#0a0a0a"/>
<rect x="55" y="151" width="6" height="6" fill="#0a0a0a"/>
<rect x="79" y="151" width="6" height="6" fill="#0a0a0a"/>
<rect x="85" y="151" width="6" height="6" fill="#0a0a0a"/>
<rect x="91" y="151" width="6" height="6" fill="#0a0a0a"/>
<rect x="97" y="151" width="6" height="6" fill="#0a0a0a"/>
<rect x="103" y="151" width="6" height="6" fill="#0a0a0a"/>
<rect x="109" y="151" width="6" height="6" fill="#0a0a0a"/>
<rect x="115" y="151" width="6" height="6" fill="#0a0a0a"/>
<rect x="121" y="151" width="6" height="6" fill="#0a0a0a"/>
<rect x="133" y="151" width="6" height="6" fill="#0a0a0a"/>
<rect x="139" y="151" width="6" height="6" fill="#0a0a0a"/>
<rect x="151" y="151" width="6" height="6" fill="#0a0a0a"/>
<rect x="157" y="151" width="6" height="6" fill="#0a0a0a"/>
<rect x="163" y="151" width="6" height="6" fill="#0a0a0a"/>
<rect x="169" y="151" width="6" height="6" fill="#0a0a0a"/>
<rect x="175" y="151" width="6" height="6" fill="#0a0a0a"/>
<rect x="193" y="151" width="6" height="6" fill="#0a0a0a"/>
<rect x="55" y="157" width="6" height="6" fill="#0a0a0a"/>
<rect x="61" y="157" width="6" height="6" fill="#0a0a0a"/>
<rect x="67" y="157" width="6" height="6" fill="#0a0a0a"/>
<rect x="73" y="157" width="6" height="6" fill="#0a0a0a"/>
<rect x="79" y="157" width="6" height="6" fill="#0a0a0a"/>
<rect x="91" y="157" width="6" height="6" fill="#0a0a0a"/>
<rect x="97" y="157" width="6" height="6" fill="#0a0a0a"/>
<rect x="115" y="157" width="6" height="6" fill="#0a0a0a"/>
<rect x="121" y="157" width="6" height="6" fill="#0a0a0a"/>
<rect x="127" y="157" width="6" height="6" fill="#0a0a0a"/>
<rect x="151" y="157" width="6" height="6" fill="#0a0a0a"/>
<rect x="175" y="157" width="6" height="6" fill="#0a0a0a"/>
<rect x="187" y="157" width="6" height="6" fill="#0a0a0a"/>
<rect x="193" y="157" width="6" height="6" fill="#0a0a0a"/>
<rect x="199" y="157" width="6" height="6" fill="#0a0a0a"/>
<rect x="7" y="163" width="6" height="6" fill="#0a0a0a"/>
<rect x="13" y="163" width="6" height="6" fill="#0a0a0a"/>
<rect x="19" y="163" width="6" height="6" fill="#0a0a0a"/>
<rect x="25" y="163" width="6" height="6" fill="#0a0a0a"/>
<rect x="31" y="163" width="6" height="6" fill="#0a0a0a"/>
<rect x="37" y="163" width="6" height="6" fill="#0a0a0a"/>
<rect x="43" y="163" width="6" height="6" fill="#0a0a0a"/>
<rect x="67" y="163" width="6" height="6" fill="#0a0a0a"/>
<rect x="79" y="163" width="6" height="6" fill="#0a0a0a"/>
<rect x="85" y="163" width="6" height="6" fill="#0a0a0a"/>
<rect x="91" y="163" width="6" height="6" fill="#0a0a0a"/>
<rect x="103" y="163" width="6" height="6" fill="#0a0a0a"/>
<rect x="127" y="163" width="6" height="6" fill="#0a0a0a"/>
<rect x="139" y="163" width="6" height="6" fill="#0a0a0a"/>
<rect x="145" y="163" width="6" height="6" fill="#0a0a0a"/>
<rect x="151" y="163" width="6" height="6" fill="#0a0a0a"/>
<rect x="163" y="163" width="6" height="6" fill="#0a0a0a"/>
<rect x="175" y="163" width="6" height="6" fill="#0a0a0a"/>
<rect x="193" y="163" width="6" height="6" fill="#0a0a0a"/>
<rect x="199" y="163" width="6" height="6" fill="#0a0a0a"/>
<rect x="7" y="169" width="6" height="6" fill="#0a0a0a"/>
<rect x="43" y="169" width="6" height="6" fill="#0a0a0a"/>
<rect x="67" y="169" width="6" height="6" fill="#0a0a0a"/>
<rect x="85" y="169" width="6" height="6" fill="#0a0a0a"/>
<rect x="91" y="169" width="6" height="6" fill="#0a0a0a"/>
<rect x="109" y="169" width="6" height="6" fill="#0a0a0a"/>
<rect x="115" y="169" width="6" height="6" fill="#0a0a0a"/>
<rect x="127" y="169" width="6" height="6" fill="#0a0a0a"/>
<rect x="151" y="169" width="6" height="6" fill="#0a0a0a"/>
<rect x="175" y="169" width="6" height="6" fill="#0a0a0a"/>
<rect x="181" y="169" width="6" height="6" fill="#0a0a0a"/>
<rect x="199" y="169" width="6" height="6" fill="#0a0a0a"/>
<rect x="7" y="175" width="6" height="6" fill="#0a0a0a"/>
<rect x="19" y="175" width="6" height="6" fill="#0a0a0a"/>
<rect x="25" y="175" width="6" height="6" fill="#0a0a0a"/>
<rect x="31" y="175" width="6" height="6" fill="#0a0a0a"/>
<rect x="43" y="175" width="6" height="6" fill="#0a0a0a"/>
<rect x="55" y="175" width="6" height="6" fill="#0a0a0a"/>
<rect x="61" y="175" width="6" height="6" fill="#0a0a0a"/>
<rect x="73" y="175" width="6" height="6" fill="#0a0a0a"/>
<rect x="79" y="175" width="6" height="6" fill="#0a0a0a"/>
<rect x="91" y="175" width="6" height="6" fill="#0a0a0a"/>
<rect x="109" y="175" width="6" height="6" fill="#0a0a0a"/>
<rect x="115" y="175" width="6" height="6" fill="#0a0a0a"/>
<rect x="121" y="175" width="6" height="6" fill="#0a0a0a"/>
<rect x="133" y="175" width="6" height="6" fill="#0a0a0a"/>
<rect x="139" y="175" width="6" height="6" fill="#0a0a0a"/>
<rect x="151" y="175" width="6" height="6" fill="#0a0a0a"/>
<rect x="157" y="175" width="6" height="6" fill="#0a0a0a"/>
<rect x="163" y="175" width="6" height="6" fill="#0a0a0a"/>
<rect x="169" y="175" width="6" height="6" fill="#0a0a0a"/>
<rect x="175" y="175" width="6" height="6" fill="#0a0a0a"/>
<rect x="7" y="181" width="6" height="6" fill="#0a0a0a"/>
<rect x="19" y="181" width="6" height="6" fill="#0a0a0a"/>
<rect x="25" y="181" width="6" height="6" fill="#0a0a0a"/>
<rect x="31" y="181" width="6" height="6" fill="#0a0a0a"/>
<rect x="43" y="181" width="6" height="6" fill="#0a0a0a"/>
<rect x="55" y="181" width="6" height="6" fill="#0a0a0a"/>
<rect x="61" y="181" width="6" height="6" fill="#0a0a0a"/>
<rect x="79" y="181" width="6" height="6" fill="#0a0a0a"/>
<rect x="85" y="181" width="6" height="6" fill="#0a0a0a"/>
<rect x="115" y="181" width="6" height="6" fill="#0a0a0a"/>
<rect x="121" y="181" width="6" height="6" fill="#0a0a0a"/>
<rect x="127" y="181" width="6" height="6" fill="#0a0a0a"/>
<rect x="133" y="181" width="6" height="6" fill="#0a0a0a"/>
<rect x="145" y="181" width="6" height="6" fill="#0a0a0a"/>
<rect x="157" y="181" width="6" height="6" fill="#0a0a0a"/>
<rect x="169" y="181" width="6" height="6" fill="#0a0a0a"/>
<rect x="181" y="181" width="6" height="6" fill="#0a0a0a"/>
<rect x="187" y="181" width="6" height="6" fill="#0a0a0a"/>
<rect x="193" y="181" width="6" height="6" fill="#0a0a0a"/>
<rect x="7" y="187" width="6" height="6" fill="#0a0a0a"/>
<rect x="19" y="187" width="6" height="6" fill="#0a0a0a"/>
<rect x="25" y="187" width="6" height="6" fill="#0a0a0a"/>
<rect x="31" y="187" width="6" height="6" fill="#0a0a0a"/>
<rect x="43" y="187" width="6" height="6" fill="#0a0a0a"/>
<rect x="55" y="187" width="6" height="6" fill="#0a0a0a"/>
<rect x="67" y="187" width="6" height="6" fill="#0a0a0a"/>
<rect x="73" y="187" width="6" height="6" fill="#0a0a0a"/>
<rect x="85" y="187" width="6" height="6" fill="#0a0a0a"/>
<rect x="91" y="187" width="6" height="6" fill="#0a0a0a"/>
<rect x="97" y="187" width="6" height="6" fill="#0a0a0a"/>
<rect x="103" y="187" width="6" height="6" fill="#0a0a0a"/>
<rect x="109" y="187" width="6" height="6" fill="#0a0a0a"/>
<rect x="121" y="187" width="6" height="6" fill="#0a0a0a"/>
<rect x="133" y="187" width="6" height="6" fill="#0a0a0a"/>
<rect x="145" y="187" width="6" height="6" fill="#0a0a0a"/>
<rect x="151" y="187" width="6" height="6" fill="#0a0a0a"/>
<rect x="169" y="187" width="6" height="6" fill="#0a0a0a"/>
<rect x="175" y="187" width="6" height="6" fill="#0a0a0a"/>
<rect x="181" y="187" width="6" height="6" fill="#0a0a0a"/>
<rect x="7" y="193" width="6" height="6" fill="#0a0a0a"/>
<rect x="43" y="193" width="6" height="6" fill="#0a0a0a"/>
<rect x="61" y="193" width="6" height="6" fill="#0a0a0a"/>
<rect x="67" y="193" width="6" height="6" fill="#0a0a0a"/>
<rect x="109" y="193" width="6" height="6" fill="#0a0a0a"/>
<rect x="115" y="193" width="6" height="6" fill="#0a0a0a"/>
<rect x="121" y="193" width="6" height="6" fill="#0a0a0a"/>
<rect x="127" y="193" width="6" height="6" fill="#0a0a0a"/>
<rect x="133" y="193" width="6" height="6" fill="#0a0a0a"/>
<rect x="139" y="193" width="6" height="6" fill="#0a0a0a"/>
<rect x="145" y="193" width="6" height="6" fill="#0a0a0a"/>
<rect x="151" y="193" width="6" height="6" fill="#0a0a0a"/>
<rect x="157" y="193" width="6" height="6" fill="#0a0a0a"/>
<rect x="169" y="193" width="6" height="6" fill="#0a0a0a"/>
<rect x="175" y="193" width="6" height="6" fill="#0a0a0a"/>
<rect x="187" y="193" width="6" height="6" fill="#0a0a0a"/>
<rect x="193" y="193" width="6" height="6" fill="#0a0a0a"/>
<rect x="199" y="193" width="6" height="6" fill="#0a0a0a"/>
<rect x="7" y="199" width="6" height="6" fill="#0a0a0a"/>
<rect x="13" y="199" width="6" height="6" fill="#0a0a0a"/>
<rect x="19" y="199" width="6" height="6" fill="#0a0a0a"/>
<rect x="25" y="199" width="6" height="6" fill="#0a0a0a"/>
<rect x="31" y="199" width="6" height="6" fill="#0a0a0a"/>
<rect x="37" y="199" width="6" height="6" fill="#0a0a0a"/>
<rect x="43" y="199" width="6" height="6" fill="#0a0a0a"/>
<rect x="61" y="199" width="6" height="6" fill="#0a0a0a"/>
<rect x="97" y="199" width="6" height="6" fill="#0a0a0a"/>
<rect x="103" y="199" width="6" height="6" fill="#0a0a0a"/>
<rect x="109" y="199" width="6" height="6" fill="#0a0a0a"/>
<rect x="127" y="199" width="6" height="6" fill="#0a0a0a"/>
<rect x="145" y="199" width="6" height="6" fill="#0a0a0a"/>
<rect x="151" y="199" width="6" height="6" fill="#0a0a0a"/>
<rect x="163" y="199" width="6" height="6" fill="#0a0a0a"/>
<rect x="187" y="199" width="6" height="6" fill="#0a0a0a"/>
<rect x="193" y="199" width="6" height="6" fill="#0a0a0a"/>
</svg>

