<svg width="19" height="19" viewBox="0 0 19 19" fill="none" xmlns="http://www.w3.org/2000/svg">
<path d="M10.7614 15.8334C9.9427 15.8334 9.24184 15.5233 8.65883 14.9032C8.07581 14.2831 7.7843 13.5376 7.7843 12.6667C7.7843 11.7959 8.07581 11.0504 8.65883 10.4303C9.24184 9.81015 9.9427 9.50008 10.7614 9.50008C11.0467 9.50008 11.3103 9.53637 11.5522 9.60894C11.7941 9.6815 12.0267 9.79036 12.25 9.9355V3.16675H16.7156V5.54175H13.7385V12.6667C13.7385 13.5376 13.447 14.2831 12.864 14.9032C12.281 15.5233 11.5801 15.8334 10.7614 15.8334ZM1.83008 12.6667C1.83008 11.3605 2.06577 10.1301 2.53714 8.9756C3.00852 7.82109 3.64736 6.81501 4.45366 5.95737C5.25996 5.09973 6.20581 4.42022 7.29121 3.91883C8.37662 3.41744 9.53335 3.16675 10.7614 3.16675V4.75008C9.74423 4.75008 8.78287 4.95789 7.87733 5.37352C6.9718 5.78914 6.181 6.3565 5.50495 7.0756C4.8289 7.7947 4.2955 8.63255 3.90475 9.58914C3.51401 10.5457 3.31863 11.5716 3.31863 12.6667H1.83008ZM4.80719 12.6667C4.80719 11.7959 4.96535 10.9746 5.28167 10.2027C5.59798 9.43081 6.02594 8.75789 6.56554 8.18394C7.10515 7.60998 7.73468 7.15807 8.45415 6.82821C9.17362 6.49835 9.9427 6.33341 10.7614 6.33341V7.91675C9.52095 7.91675 8.46655 8.37855 7.59823 9.30216C6.72991 10.2258 6.29574 11.3473 6.29574 12.6667H4.80719Z" fill="white"/>
</svg>
